<svg width="290" height="98" viewBox="0 0 290 98" fill="none" xmlns="http://www.w3.org/2000/svg">
<path d="M37.5811 69.1665H27.6973V51.9478H13.0557V69.1665H3.11523V27.9321H13.0557V44.3013H27.6973V27.9321H37.5811V69.1665ZM69.4697 51.6929H53.8369V61.52H72.3018V69.1665H43.8965V27.9321H72.3584V35.6069H53.8369V44.3013H69.4697V51.6929ZM86.292 61.52H103.596V69.1665H76.3516V27.9321H86.292V61.52ZM117.728 55.1763V69.1665H107.787V27.9321H124.241C127.394 27.9321 130.179 28.5174 132.596 29.688C135.031 30.8397 136.91 32.4917 138.231 34.644C139.572 36.7775 140.242 39.2036 140.242 41.9224C140.242 45.9438 138.798 49.1629 135.909 51.5796C133.039 53.9774 129.093 55.1763 124.071 55.1763H117.728ZM117.728 47.5015H124.241C126.167 47.5015 127.63 47.02 128.631 46.0571C129.65 45.0942 130.16 43.7349 130.16 41.979C130.16 40.0532 129.641 38.5145 128.603 37.3628C127.564 36.2111 126.148 35.6258 124.354 35.6069H117.728V47.5015Z" fill="#FF6B00"/>
<path d="M158.056 40.6766V54.6669H148.115V13.4325H164.569C167.722 13.4325 170.507 14.0178 172.924 15.1884C175.359 16.34 177.238 17.9921 178.56 20.1444C179.9 22.2779 180.57 24.704 180.57 27.4227C180.57 31.4442 179.126 34.6633 176.237 37.08C173.368 39.4777 169.422 40.6766 164.399 40.6766H158.056ZM158.056 33.0018H164.569C166.495 33.0018 167.958 32.5204 168.959 31.5575C169.979 30.5946 170.488 29.2352 170.488 27.4794C170.488 25.5536 169.969 24.0149 168.931 22.8632C167.892 21.7115 166.476 21.1262 164.683 21.1073H158.056V33.0018ZM195.835 47.0204H213.139V54.6669H185.895V13.4325H195.835V47.0204ZM241.317 46.9637H227.695L225.316 54.6669H214.696L229.819 13.4325H239.165L254.401 54.6669H243.725L241.317 46.9637ZM230.074 39.2889H238.938L234.492 24.9872L230.074 39.2889ZM268.278 31.3309L275.868 13.4325H286.602L273.319 39.8553V54.6669H263.237V39.8553L249.983 13.4325H260.66L268.278 31.3309Z" fill="white"/>
<path d="M122.344 82.9844H167.656V60.3281H122.344V82.9844ZM125.365 63.349H164.635V79.9635H125.365V63.349Z" fill="url(#paint0_linear)"/>
<path d="M135.181 66.37H132.16V70.146H128.384V73.1669H132.16V76.9429H135.181V73.1669H138.957V70.146H135.181V66.37Z" fill="#FF6B00"/>
<path d="M152.554 73.1669H155.575V76.1877H152.554V73.1669Z" fill="#FF6B00"/>
<path d="M158.594 67.125H161.615V70.1458H158.594V67.125Z" fill="#FF6B00"/>
<defs>
<linearGradient id="paint0_linear" x1="111.167" y1="85.25" x2="190.917" y2="56.25" gradientUnits="userSpaceOnUse">
<stop stop-color="#FF6B00"/>
<stop offset="0.366841" stop-color="#F56700"/>
<stop offset="0.726222" stop-color="#E9C0A2"/>
<stop offset="1" stop-color="#B34B00"/>
</linearGradient>
</defs>
</svg>
